HIERARCHY
ROOT Hips
{
 OFFSET 0.000000 0.000000 0.000000
 CHANNELS 6 Xposition Yposition Zposition Yrotation Xrotation Zrotation
 JOINT Chest
 {
  OFFSET 0.000000 9.585900 0.002600
  CHANNELS 3 Yrotation Xrotation Zrotation
  JOINT Chest2
  {
   OFFSET 0.000000 9.601200 -0.005300
   CHANNELS 3 Yrotation Xrotation Zrotation
   JOINT Chest3
   {
    OFFSET 0.000000 9.561800 0.000000
    CHANNELS 3 Yrotation Xrotation Zrotation
    JOINT Chest4
    {
     OFFSET 0.000000 9.552100 0.000000
     CHANNELS 3 Yrotation Xrotation Zrotation
     JOINT Neck
     {
      OFFSET 0.000000 14.453000 0.000000
      CHANNELS 3 Yrotation Xrotation Zrotation
      JOINT Head
      {
       OFFSET 0.000000 8.936500 -0.011300
       CHANNELS 3 Yrotation Xrotation Zrotation
       End Site
       {
        OFFSET 0.000000 17.073600 -0.006000
       }
      }
     }
     JOINT RightCollar
     {
      OFFSET -2.921100 9.558500 0.000000
      CHANNELS 3 Yrotation Xrotation Zrotation
      JOINT RightShoulder
      {
       OFFSET -13.519700 0.000000 0.000000
       CHANNELS 3 Yrotation Xrotation Zrotation
       JOINT RightElbow
       {
        OFFSET 0.000000 -29.696600 0.000000
        CHANNELS 3 Yrotation Xrotation Zrotation
        JOINT RightWrist
        {
         OFFSET 0.000000 -24.004700 0.000000
         CHANNELS 3 Yrotation Xrotation Zrotation
         End Site
         {
          OFFSET 0.000000 -17.728500 0.000000
         }
        }
       }
      }
     }
     JOINT LeftCollar
     {
      OFFSET 2.921100 9.558500 0.000000
      CHANNELS 3 Yrotation Xrotation Zrotation
      JOINT LeftShoulder
      {
       OFFSET 13.519700 0.000000 0.000000
       CHANNELS 3 Yrotation Xrotation Zrotation
       JOINT LeftElbow
       {
        OFFSET 0.000000 -29.696600 0.000000
        CHANNELS 3 Yrotation Xrotation Zrotation
        JOINT LeftWrist
        {
         OFFSET 0.000000 -24.004700 0.000000
         CHANNELS 3 Yrotation Xrotation Zrotation
         End Site
         {
          OFFSET 0.000000 -17.728500 0.000000
         }
        }
       }
      }
     }
    }
   }
  }
 }
 JOINT RightHip
 {
  OFFSET -7.771700 -0.012900 -0.001300
  CHANNELS 3 Yrotation Xrotation Zrotation
  JOINT RightKnee
  {
   OFFSET 0.000000 -40.869800 0.001200
   CHANNELS 3 Yrotation Xrotation Zrotation
   JOINT RightAnkle
   {
    OFFSET 0.000000 -39.717900 0.002100
    CHANNELS 3 Yrotation Xrotation Zrotation
    JOINT RightToe
    {
     OFFSET 0.000000 -4.965400 11.033500
     CHANNELS 3 Yrotation Xrotation Zrotation
     End Site
     {
      OFFSET 0.000000 -1.423100 5.872300
     }
    }
   }
  }
 }
 JOINT LeftHip
 {
  OFFSET 7.771700 -0.012900 -0.001300
  CHANNELS 3 Yrotation Xrotation Zrotation
  JOINT LeftKnee
  {
   OFFSET 0.000000 -40.869800 0.001200
   CHANNELS 3 Yrotation Xrotation Zrotation
   JOINT LeftAnkle
   {
    OFFSET 0.000000 -39.717900 0.002100
    CHANNELS 3 Yrotation Xrotation Zrotation
    JOINT LeftToe
    {
     OFFSET 0.000000 -4.965400 11.033500
     CHANNELS 3 Yrotation Xrotation Zrotation
     End Site
     {
      OFFSET 0.000000 -1.423100 5.872300
     }
    }
   }
  }
 }
}
MOTION
Frames: 7
Frame Time: 0.008333
0.000000 85.388000 0.000000 0.000000 -5.767877 0.000000 0.000000 11.653817 0.000000 0.000000 -5.885947 0.000000 0.000000 -0.000000 0.000000 0.000000 -0.000000 0.000000 0.000000 12.528835 0.000000 0.000000 0.711642 0.000000 0.000000 -0.000000 0.000000 0.000000 0.000000 -90.000000 0.000000 -2.309062 0.000000 0.000000 2.309062 0.000000 0.000000 -0.000000 0.000000 0.000000 -0.000000 90.000000 0.000000 -2.309062 0.000000 0.000000 2.309062 0.000000 0.000000 8.520406 0.000000 0.000000 1.905762 0.000000 -0.000000 -4.658285 0.000000 0.000000 -0.000000 0.000000 0.000000 8.520406 0.000000 0.000000 1.905762 0.000000 -0.000000 -4.658285 0.000000 0.000000 -0.000000 0.000000
-87.095779 55.710724 -45.751468 -171.987260 -17.578396 0.434490 -2.010535 16.984998 0.596314 -0.196693 1.779227 0.128066 -0.316802 2.993809 0.216018 -1.501359 15.004768 0.931902 0.549273 11.784595 4.951502 -0.563232 -13.256884 5.184476 2.506214 2.329840 0.164455 3.855538 -9.678361 -10.264714 -67.340004 -51.129178 101.346399 -15.234308 12.724862 7.443311 -6.307358 -0.025565 0.249349 4.537805 -13.458503 5.723862 56.876159 -54.713188 -93.818820 7.292673 2.742217 8.792586 -3.130855 -58.314609 6.219435 -35.648993 85.653112 -42.053674 -10.652240 -18.783294 13.551294 0.136878 -0.066899 -0.053933 11.560432 -53.789606 -14.293303 86.880142 70.718612 88.242366 0.813368 -18.774956 -2.751401 -0.056249 0.348740 -0.009333
-87.097193 55.711401 -45.746507 -171.996938 -17.584856 0.428727 -2.005770 16.974166 0.600395 -0.197754 1.756628 0.122784 -0.316583 2.987360 0.215740 -1.502345 14.990187 0.931775 0.536199 11.691235 4.901414 -0.565822 -13.355067 5.134171 2.486672 2.307071 0.170900 3.864279 -9.586178 -10.276608 -67.286189 -51.080749 101.359108 -15.289783 12.556171 7.413846 -6.286774 -0.084043 0.268255 4.474572 -13.367438 5.732707 56.703167 -54.530937 -93.801865 7.364022 2.375495 8.896803 -3.140444 -58.306779 6.233836 -35.698851 85.631566 -42.097399 -10.648544 -18.747501 13.557926 0.164908 -0.096452 -0.036347 11.634822 -53.772307 -14.337542 86.815138 70.715517 88.218221 0.805603 -18.779125 -2.745993 -0.055368 0.357258 -0.008218
-87.097076 55.712353 -45.741867 -172.004122 -17.594891 0.413641 -2.001935 16.948806 0.606703 -0.195079 1.752330 0.123027 -0.316792 2.981945 0.215349 -1.503216 14.991928 0.933473 0.521382 11.586103 4.853170 -0.569084 -13.450829 5.088906 2.466587 2.272225 0.173756 3.869192 -9.492677 -10.282873 -67.269921 -51.054479 101.390403 -15.356164 12.420848 7.397445 -6.272906 -0.132469 0.281776 4.410023 -13.297177 5.751199 56.529679 -54.337798 -93.794026 7.437041 1.973751 9.033069 -3.161705 -58.292224 6.261435 -35.760349 85.608288 -42.156691 -10.614002 -18.722364 13.558372 0.166462 -0.117842 -0.020091 11.644102 -53.762221 -14.325081 86.776702 70.710591 88.197931 0.785568 -18.779501 -2.749863 -0.039674 0.363477 -0.003636
-87.097131 55.713964 -45.739072 -172.003621 -17.616636 0.398518 -2.001180 16.933860 0.612577 -0.197018 1.749979 0.121577 -0.316685 2.977018 0.214511 -1.499317 15.022339 0.940408 0.503739 11.456716 4.803804 -0.572714 -13.543331 5.049795 2.445234 2.213277 0.170160 3.874860 -9.398784 -10.288562 -67.269107 -51.030396 101.435937 -15.417665 12.294137 7.378203 -6.262051 -0.211439 0.292530 4.260019 -13.250288 5.799320 56.395393 -54.114083 -93.747702 7.510998 1.546501 9.203232 -3.184756 -58.265309 6.284245 -35.980844 85.578070 -42.372677 -10.577468 -18.699896 13.558367 0.173733 -0.134866 -0.004124 11.639246 -53.741722 -14.305702 86.754316 70.709242 88.188404 0.766387 -18.782542 -2.754852 -0.024687 0.367360 0.000143
-87.097472 55.716081 -45.738173 -172.015442 -17.647825 0.391345 -1.994197 16.928046 0.611911 -0.194093 1.750154 0.118663 -0.316010 2.971893 0.213331 -1.500605 15.009282 0.939931 0.494336 11.374349 4.765267 -0.577126 -13.631839 5.017170 2.435272 2.216197 0.175889 3.868485 -9.316383 -10.289418 -67.252018 -50.996812 101.491994 -15.450442 12.161208 7.345986 -6.245050 -0.246294 0.304690 4.171933 -13.186309 5.820905 56.221585 -53.910646 -93.730431 7.589494 1.109716 9.399786 -3.193605 -58.227879 6.292994 -35.873254 85.570403 -42.260162 -10.553715 -18.683886 13.563747 0.164326 -0.147695 -0.002415 11.645099 -53.713642 -14.285587 86.762255 70.707642 88.202150 0.749236 -18.782055 -2.751898 -0.015615 0.362499 0.000997
-87.095579 55.718380 -45.738869 -172.022604 -17.682708 0.372695 -1.984943 16.929814 0.620747 -0.194097 1.749334 0.115955 -0.315133 2.966488 0.212191 -1.498926 14.996504 0.936437 0.484767 11.294324 4.735349 -0.581415 -13.716850 4.989645 2.418727 2.204761 0.180851 3.861905 -9.221704 -10.286921 -67.246156 -50.968473 101.561353 -15.471857 12.041382 7.316132 -6.232026 -0.279950 0.319951 4.076626 -13.127116 5.843301 56.059081 -53.703590 -93.715731 7.667688 0.679869 9.607065 -3.223442 -58.186738 6.326761 -35.924816 85.555405 -42.304968 -10.535309 -18.660109 13.572805 0.166295 -0.167981 -0.011936 11.631897 -53.686846 -14.247384 86.778306 70.708640 88.227654 0.736807 -18.777149 -2.756347 -0.007725 0.353947 0.005527
